<svg xmlns:dc="http://purl.org/dc/elements/1.1/" xmlns:cc="http://creativecommons.org/ns#" xmlns:rdf="http://www.w3.org/1999/02/22-rdf-syntax-ns#" xmlns:svg="http://www.w3.org/2000/svg" xmlns="http://www.w3.org/2000/svg" xmlns:xlink="http://www.w3.org/1999/xlink" id="svg357062" viewBox="0 0 1024 768" height="768px" width="1024px" version="1.1">
  <metadata id="metadata357068">
    <rdf:rdf>
      <cc:work rdf:about="">
        <dc:format>image/svg+xml</dc:format>
        <dc:type rdf:resource="http://purl.org/dc/dcmitype/StillImage"></dc:type>
      </cc:work>
    </rdf:rdf>
  </metadata>
  <defs id="defs357066"></defs>
  <linearGradient spreadMethod="pad" y2="30%" x2="-10%" y1="120%" x1="30%" id="3d_gradient2-logo-d50fb62b-9bbd-4525-a2dd-2a3e4fd005d1">
    <stop id="stop357043" stop-opacity="1" stop-color="#ffffff" offset="0%"></stop>
    <stop id="stop357045" stop-opacity="1" stop-color="#000000" offset="100%"></stop>
  </linearGradient>
  <linearGradient gradientTransform="rotate(-30)" spreadMethod="pad" y2="30%" x2="-10%" y1="120%" x1="30%" id="3d_gradient3-logo-d50fb62b-9bbd-4525-a2dd-2a3e4fd005d1">
    <stop id="stop357048" stop-opacity="1" stop-color="#ffffff" offset="0%"></stop>
    <stop id="stop357050" stop-opacity="1" stop-color="#cccccc" offset="50%"></stop>
    <stop id="stop357052" stop-opacity="1" stop-color="#000000" offset="100%"></stop>
  </linearGradient>
  <g id="logo-group">
    <image xlink:href="" id="container" x="272" y="144" width="480" height="480" style="display: none;" transform="translate(0 0)"></image>
    <g id="logo-center" transform="translate(70.10624999999993 0)">
      <image xlink:href="" id="icon_container" style="display: none;" x="0" y="0"></image>
      <g id="slogan" style="font-style:normal;font-weight:normal;font-size:32px;line-height:1;font-family:'Brandmark Didone 1';font-variant-ligatures:none;text-align:center;text-anchor:middle" transform="translate(0 0)"></g>
      <g id="title" style="font-style:normal;font-weight:normal;font-size:72px;line-height:1;font-family:'Brandmark Didone 1';font-variant-ligatures:normal;text-align:center;text-anchor:middle" transform="translate(0 0)">
        <path id="path357071" style="font-style:normal;font-weight:normal;font-size:72px;line-height:1;font-family:'Brandmark Didone 1';font-variant-ligatures:normal;text-align:center;text-anchor:middle" d="m 396.10869,-66.6 c -0.72,-1.8 -1.728,-3.456 -3.096,-4.824 -1.296,-1.368 -2.952,-2.448 -4.752,-3.168 -0.936,-0.36 -1.872,-0.576 -2.808,-0.792 -0.936,-0.144 -1.944,-0.144 -2.88,-0.144 -1.872,0 -3.816,0.216 -5.688,0.648 -3.816,0.864 -7.344,2.664 -10.512,4.68 -1.584,1.008 -3.168,2.088 -4.608,3.24 -1.512,1.08 -2.952,2.232 -4.392,3.384 -2.808,2.304 -5.616,4.536 -8.568,6.48 -2.952,2.016 -6.048,3.744 -9.432,4.968 -3.384,1.224 -6.984,1.944 -10.656,1.8 h -14.256 v 0.36 c 3.6,0 6.48,2.88 6.48,6.408 v 13.752 h 27.792 v -1.44 h -20.016 v -17.64 c 1.872,0 3.744,-0.144 5.616,-0.288 1.872,-0.144 3.744,-0.432 5.616,-0.864 3.744,-0.792 7.344,-2.088 10.728,-3.816 3.456,-1.8 6.552,-4.032 9.432,-6.336 1.512,-1.152 2.88,-2.304 4.248,-3.528 l 2.088,-1.728 c 0.72,-0.648 1.368,-1.224 2.088,-1.728 2.736,-2.304 5.688,-4.392 9,-5.616 1.584,-0.648 3.312,-1.08 5.112,-1.224 0.936,-0.072 1.8,-0.072 2.664,0 0.864,0.072 1.728,0.288 2.52,0.576 3.312,1.152 5.976,3.96 7.416,7.2 0.648,1.656 1.08,3.384 1.152,5.184 0,1.8 -0.288,3.528 -1.08,5.112 l 0.936,0.432 c 0.792,-1.728 1.152,-3.672 1.08,-5.544 -0.072,-1.944 -0.432,-3.816 -1.224,-5.544 z M 320.94069,0 h 29.52 v -1.44 h -21.744 v -18.936 c 0,-4.32 -3.456,-7.848 -7.776,-7.848 z" strokeWidth="0" stroke-linejoin="miter" stroke-miterlimit="2" fill="#231f20" stroke="#231f20" transform="translate(0 318.232) translate(50 -25.528000000000006) scale(2) translate(-314.46069 75.528)"></path>
        <path id="path357073" style="font-style:normal;font-weight:normal;font-size:72px;line-height:1;font-family:'Brandmark Didone 1';font-variant-ligatures:normal;text-align:center;text-anchor:middle" d="m 375.65506,0.576 15.192,-36.288 h -1.44 l -11.448,27.432 -9.936,-21.744 c -1.656,-3.528 -5.04,-5.688 -8.928,-5.688 h -5.976 v 0.36 c 3.6,0 5.904,2.88 7.56,6.48 l 13.536,29.448 z" strokeWidth="0" stroke-linejoin="miter" stroke-miterlimit="2" fill="#2d2a29" stroke="#2d2a29" transform="translate(0 318.232) translate(127.31674000000004 54.104) scale(2) translate(-353.11906 35.712)"></path>
        <path id="path357075" style="font-style:normal;font-weight:normal;font-size:72px;line-height:1;font-family:'Brandmark Didone 1';font-variant-ligatures:normal;text-align:center;text-anchor:middle" d="m 426.62544,-8.568 -1.08,-1.008 c 0,0 -3.888,6.624 -9.648,6.624 -5.76,0 -13.176,-4.032 -13.176,-16.704 0,-1.08 0.072,-2.016 0.144,-2.952 h 23.544 c 0,-5.832 -0.792,-13.68 -13.536,-13.68 -10.296,0 -18,7.416 -18,19.152 0,11.736 7.056,17.712 15.984,17.712 8.928,0 14.04,-6.048 15.768,-9.144 z m -23.472,-15.48 c 1.44,-7.056 6.192,-10.512 9.72,-10.512 3.96,0 5.688,3.024 5.832,10.512 z" strokeWidth="0" stroke-linejoin="miter" stroke-miterlimit="2" fill="#373431" stroke="#373431" transform="translate(0 318.232) translate(210.8255000000001 52.95200000000001) scale(2) translate(-394.87344 36.288)"></path>
        <path id="path357077" style="font-style:normal;font-weight:normal;font-size:72px;line-height:1;font-family:'Brandmark Didone 1';font-variant-ligatures:normal;text-align:center;text-anchor:middle" d="m 458.11756,-36.288 c -6.696,0 -11.304,5.184 -13.392,8.064 v -7.488 h -14.256 v 0.36 c 3.6,0 6.48,2.88 6.48,6.48 V 0 h 7.776 v -26.136 c 2.016,-3.24 6.984,-8.424 10.512,-8.424 3.024,0 7.2,2.736 7.2,10.296 V 0 h 7.776 v -24.264 c 0,0 0,-12.024 -12.096,-12.024 z" strokeWidth="0" stroke-linejoin="miter" stroke-miterlimit="2" fill="#413f3a" stroke="#413f3a" transform="translate(0 318.232) translate(282.01774000000006 52.95200000000001) scale(2) translate(-430.46956 36.288)"></path>
        <path id="path357079" style="font-style:normal;font-weight:normal;font-size:72px;line-height:1;font-family:'Brandmark Didone 1';font-variant-ligatures:normal;text-align:center;text-anchor:middle" d="m 497.95044,-1.872 -0.72,-0.936 c -1.152,1.008 -2.736,1.656 -4.464,1.656 -3.744,0 -6.84,-3.096 -6.84,-6.84 v -26.28 h 7.272 v -1.44 h -7.272 v -14.616 h -14.256 v 0.36 c 3.6,0 6.48,2.88 6.48,6.408 v 31.68 c 0,6.912 5.544,12.456 12.456,12.456 2.736,0 5.328,-0.864 7.344,-2.448 z" strokeWidth="0" stroke-linejoin="miter" stroke-miterlimit="2" fill="#4b4943" stroke="#4b4943" transform="translate(0 318.232) translate(364.41949999999997 24.872) scale(2) translate(-471.67044 50.328)"></path>
        <path id="path357081" style="font-style:normal;font-weight:normal;font-size:72px;line-height:1;font-family:'Brandmark Didone 1';font-variant-ligatures:normal;text-align:center;text-anchor:middle" d="m 507.35094,-28.872 -3.096,-6.84 h -4.464 v 0.36 c 3.6,0 9.216,10.08 7.56,6.48 z m -3.096,-6.84 16.632,36.288 -6.336,15.192 h 1.512 l 21.456,-51.48 h -1.44 l -11.448,27.432 -9.936,-21.744 c -1.584,-3.528 -5.04,-5.688 -8.928,-5.688 z" strokeWidth="0" stroke-linejoin="miter" stroke-miterlimit="2" fill="#56544b" stroke="#56544b" transform="translate(0 318.232) translate(420.6605 54.104) scale(2) translate(-499.79094 35.712)"></path>
        <path id="path357083" style="font-style:normal;font-weight:normal;font-size:72px;line-height:1;font-family:'Brandmark Didone 1';font-variant-ligatures:normal;text-align:center;text-anchor:middle" d="m 563.61894,-36.288 c -4.68,0 -7.56,2.592 -8.784,5.256 v -4.68 h -14.256 v 0.36 c 3.6,0 6.48,2.88 6.48,6.48 V 0 h 7.776 v -27.288 c 0.144,-0.936 1.224,-6.48 5.472,-6.48 3.384,0 6.768,5.328 3.168,10.512 0,0 7.128,0 7.128,-6.48 0,-6.408 -6.984,-6.552 -6.984,-6.552 z" strokeWidth="0" stroke-linejoin="miter" stroke-miterlimit="2" fill="#605e54" stroke="#605e54" transform="translate(0 318.232) translate(502.23650000000015 52.95200000000001) scale(2) translate(-540.57894 36.288)"></path>
        <path id="path357085" style="font-style:normal;font-weight:normal;font-size:72px;line-height:1;font-family:'Brandmark Didone 1';font-variant-ligatures:normal;text-align:center;text-anchor:middle" d="m 584.55631,-40.896 c 2.808,0 5.04,-2.232 5.04,-4.968 0,-2.808 -2.232,-5.04 -5.04,-5.04 -2.736,0 -5.04,2.232 -5.04,5.04 0,2.736 2.304,4.968 5.04,4.968 z m -10.368,5.544 c 3.6,0 6.48,2.88 6.48,6.48 V 0 h 7.776 v -35.712 h -14.256 z" strokeWidth="0" stroke-linejoin="miter" stroke-miterlimit="2" fill="#6a695d" stroke="#6a695d" transform="translate(0 318.232) translate(569.4552400000002 23.72) scale(2) translate(-574.18831 50.904)"></path>
        <path id="path357087" style="font-style:normal;font-weight:normal;font-size:72px;line-height:1;font-family:'Brandmark Didone 1';font-variant-ligatures:normal;text-align:center;text-anchor:middle" d="m 634.60081,0 v -35.712 h -7.776 v 26.136 c -2.016,3.24 -6.984,8.424 -10.512,8.424 -3.024,0 -7.2,-2.736 -7.2,-10.296 v -24.264 h -14.256 v 0.36 c 3.6,0 6.48,2.88 6.48,6.48 v 17.424 c 0,0 0,12.024 12.096,12.024 6.696,0 11.376,-5.184 13.392,-8.064 V 0 Z" strokeWidth="0" stroke-linejoin="miter" stroke-miterlimit="2" fill="#747365" stroke="#747365" transform="translate(0 318.232) translate(610.7922400000002 54.104) scale(2) translate(-594.85681 35.712)"></path>
        <path id="path357089" style="font-style:normal;font-weight:normal;font-size:72px;line-height:1;font-family:'Brandmark Didone 1';font-variant-ligatures:normal;text-align:center;text-anchor:middle" d="m 694.25844,-36.288 c -7.128,0 -11.952,5.904 -13.752,8.568 -1.008,-3.528 -3.744,-8.568 -11.592,-8.568 -6.696,0 -11.304,5.184 -13.392,8.064 v -7.488 h -14.256 v 0.36 c 3.6,0 6.48,2.88 6.48,6.48 V 0 h 7.776 v -26.136 c 2.016,-3.24 6.984,-8.424 10.584,-8.424 2.952,0 7.128,2.736 7.128,10.296 V 0 h 7.776 v -24.264 c 0,0 0,-0.72 -0.144,-1.872 1.944,-3.168 6.912,-8.424 10.512,-8.424 2.952,0 7.128,2.736 7.128,10.296 V 0 h 7.848 v -24.264 c 0,0 0,-12.024 -12.096,-12.024 z" strokeWidth="0" stroke-linejoin="miter" stroke-miterlimit="2" fill="#7e7e6e" stroke="#7e7e6e" transform="translate(0 318.232) translate(703.6115000000002 52.95200000000001) scale(2) translate(-641.26644 36.288)"></path>
      </g>
      <image xlink:href="" id="icon" style="display: none;" x="0" y="0"></image>
    </g>
  </g>
</svg>